<svg width="132" height="22" viewBox="0 0 132 22" fill="none" xmlns="http://www.w3.org/2000/svg">
<g clip-path="url(#clip0_448_216)">
<path d="M12.9343 12.7622C12.9343 14.3224 12.575 15.5227 11.8565 16.3631C11.1379 17.2035 10.1108 17.6238 8.77496 17.6241C7.43883 17.6241 6.41166 17.2038 5.69343 16.3631C4.97521 15.5223 4.61593 14.3221 4.61561 12.7622V0.364868H0.000488441V13.127C-0.026441 14.7105 0.322139 16.2777 1.01763 17.7002C1.68027 19.0315 2.72753 20.1326 4.02343 20.8607C5.34921 21.6203 6.93321 22 8.77544 22C10.6177 22 12.2015 21.6203 13.527 20.8607C14.8227 20.1324 15.87 19.0313 16.5328 17.7002C17.228 16.2776 17.5765 14.7104 17.5499 13.127V0.364868H12.9348L12.9343 12.7622Z" fill="white"/>
<path d="M30.9089 10.0576C31.7484 9.71859 32.4636 9.12998 32.9583 8.37125C33.4543 7.61197 33.7023 6.65498 33.7021 5.50029C33.7259 4.77042 33.5693 4.04597 33.2461 3.39122C32.923 2.73647 32.4434 2.17166 31.8499 1.74691C30.6149 0.825387 28.9652 0.364624 26.9008 0.364624H19.8271V21.6347H27.1748C28.5439 21.6657 29.9027 21.3906 31.1521 20.8293C32.2239 20.3458 33.1351 19.5656 33.7783 18.5807C34.3996 17.606 34.7216 16.4704 34.7047 15.3145C34.7044 12.7627 33.4391 11.0104 30.9089 10.0576ZM24.4415 4.43643H26.8705C27.5067 4.40403 28.1313 4.61602 28.6167 5.02908C29.036 5.47839 29.2692 6.07028 29.2692 6.68511C29.2692 7.29993 29.036 7.89182 28.6167 8.34113C28.1313 8.7541 27.5067 8.96601 26.8705 8.93354H24.4415V4.43643ZM29.2846 16.8799C28.7479 17.3354 27.9835 17.5632 26.9913 17.5632H24.4415V12.2157H26.9923C27.9835 12.2157 28.7479 12.4435 29.2855 12.8992C29.8231 13.3549 30.0913 14.0184 30.0898 14.8897C30.0892 15.7608 29.8208 16.4243 29.2846 16.8799Z" fill="white"/>
<path d="M41.1107 0.364868H36.4958V21.6352H41.1107V0.364868Z" fill="white"/>
<path d="M52.2546 8.9638C50.6347 8.39721 49.5062 7.88569 48.8692 7.42923C48.2322 6.97277 47.9137 6.44108 47.9137 5.83416C47.9099 5.57241 47.9701 5.31369 48.0892 5.08061C48.2083 4.84754 48.3826 4.64718 48.5969 4.49705C49.1056 4.13616 49.7196 3.95445 50.3426 3.98043C51.9216 3.98043 53.0753 4.80123 53.8037 6.44283L57.4774 3.8903C56.926 2.65292 55.9814 1.63266 54.7905 0.988256C53.4749 0.303389 52.0072 -0.036401 50.5246 0.000662491C49.2865 -0.0209781 48.0602 0.244206 46.9415 0.775485C45.9389 1.24765 45.0871 1.98923 44.481 2.91753C43.8931 3.8321 43.5869 4.89952 43.6005 5.98693C43.6005 7.62757 44.0915 8.92906 45.0734 9.89139C46.0554 10.8537 47.4672 11.6692 49.309 12.3378C50.7859 12.8648 51.7979 13.3612 52.3449 13.8269C52.5992 14.025 52.8052 14.2784 52.9473 14.5679C53.0893 14.8574 53.1638 15.1755 53.165 15.498C53.1766 15.8024 53.1167 16.1054 52.9902 16.3825C52.8636 16.6595 52.674 16.9031 52.4364 17.0936C51.8976 17.5056 51.2312 17.7151 50.5538 17.6855C49.6532 17.6824 48.7785 17.3837 48.064 16.8351C47.2982 16.2733 46.7254 15.4877 46.4245 14.5864L42.7506 17.3211C43.2942 18.7684 44.3107 19.9893 45.635 20.7855C46.9712 21.5958 48.5703 22.0009 50.4324 22.0009C51.7124 22.0175 52.9793 21.7421 54.137 21.1955C55.2278 20.6786 56.1493 19.8617 56.7938 18.8404C57.4711 17.7362 57.8139 16.4591 57.7806 15.1638C57.7806 13.5836 57.3352 12.3226 56.4445 11.3808C55.5538 10.439 54.1572 9.63335 52.2546 8.9638Z" fill="white"/>
<path d="M75.4664 1.44322C73.7727 0.469656 71.848 -0.0289238 69.895 -3.27905e-05C68.3177 -0.0147209 66.7518 0.269178 65.2799 0.836705C64.0077 1.30194 62.8486 2.03222 61.8795 2.97923L62.6083 3.70839C61.5064 4.63107 60.6246 5.78857 60.0272 7.09622C59.3777 8.55243 59.0567 10.134 59.0872 11.7284C59.0709 13.5408 59.5449 15.3239 60.459 16.8887C61.373 18.4534 62.6931 19.7414 64.2793 20.6162C65.9994 21.5585 67.9356 22.0352 69.8962 21.999C71.8493 22.0282 73.774 21.5296 75.4676 20.5558C77.0914 19.6193 78.4254 18.2523 79.3224 16.6054C80.2297 14.8789 80.7038 12.9574 80.7038 11.0067C80.7038 9.05591 80.2297 7.13443 79.3224 5.40793C78.4281 3.75492 77.0933 2.38249 75.4664 1.44322ZM75.2693 14.4179C74.7895 15.3924 74.0418 16.2096 73.1139 16.7735C72.1413 17.3518 71.0264 17.6466 69.8953 17.6243C68.7582 17.6493 67.6355 17.3657 66.6465 16.8036C65.7414 16.2838 64.9999 15.5206 64.5062 14.6006C64.0082 13.6714 63.7523 12.6316 63.7623 11.5773C63.7303 10.647 63.9284 9.7232 64.3392 8.88804C64.7294 8.16182 65.255 7.51715 65.8876 6.98888L65.159 6.25949C65.719 5.66935 66.3966 5.20354 67.1479 4.89225C68.0188 4.53416 68.9537 4.35834 69.895 4.37563C71.0262 4.3536 72.141 4.6483 73.1137 5.22647C74.0412 5.7905 74.7889 6.60743 75.2691 7.58153C75.7691 8.65175 76.0283 9.81878 76.0283 11.0002C76.0283 12.1816 75.7691 13.3487 75.2691 14.4189L75.2693 14.4179Z" fill="white"/>
<path d="M82.5866 21.6352H87.2015V13.1574H96.2204V9.63235H87.2027V4.7403H97.1314V0.365356H82.5866V21.6352Z" fill="white"/>
<path d="M98.891 4.7403H104.872V21.6352H109.487V4.7403H115.438V0.365356H98.891V4.7403Z" fill="white"/>
<path d="M125.993 5.31187V0.000732422H122.416V5.31187H121.058H117.11V8.8912H122.416V14.2011H125.992V8.8912H130.408L131.91 5.31187H125.993Z" fill="#448CDE"/>
</g>
<defs>
<clipPath id="clip0_448_216">
<rect width="132" height="22" fill="white"/>
</clipPath>
</defs>
</svg>
