<?xml version="1.0" encoding="UTF-8"?>
<svg width="194px" height="44px" viewBox="0 0 194 44" version="1.1" xmlns="http://www.w3.org/2000/svg" xmlns:xlink="http://www.w3.org/1999/xlink">
    <title>Group 2</title>
    <g id="Page-1" stroke="none" stroke-width="1" fill="none" fill-rule="evenodd">
        <g id="Group-2">
            <g id="d6fec215df39e4d48b61fc93891cd763" fill-rule="nonzero">
                <g id="color_index_4" transform="translate(1, 1)" fill="#579CFF">
                    <path d="M17.7820664,2.97522143 L9.87335276,2.97522143 L9.87335276,1.42202718 C9.87335276,0.380296555 10.5214796,0 11.318049,0 L16.3374663,0 C17.1340349,0 17.7820664,0.380296555 17.7820664,1.42202718 L17.7820664,2.97522143 Z" id="Path"></path>
                    <path d="M64.1265711,2.97522143 L56.2178585,2.97522143 L56.2178585,1.42202718 C56.2178585,0.380296555 56.8659871,0 57.6625556,0 L62.6819729,0 C63.4785415,0 64.1265711,0.380296555 64.1265711,1.42202718 L64.1265711,2.97522143 L64.1265711,2.97522143 Z" id="Path"></path>
                    <path d="M65.8702932,42 L8.12970587,42 C3.63979707,42 0,38.3766941 0,33.9071271 L0,10.926282 C0,6.45671543 3.63979753,2.83340906 8.12970587,2.83340906 L65.8702941,2.83340906 C70.3602034,2.83340906 74,6.45671589 74,10.926282 L74,33.907128 C74,38.3766941 70.3602025,42 65.8702932,42 Z" id="Path"></path>
                    <ellipse id="Oval" cx="59.6365189" cy="17.444527" rx="1.75866609" ry="1.75069816"></ellipse>
                </g>
                <path d="M1,36.1895335 L1.03621097,11.6358528 C1.03621097,7.07202003 5.0616761,4 10.772546,4 L14,4 C9.58755269,4 6.00963419,7.70071626 6.00963419,12.2645491 L6.00963419,35.7354491 C6.00963419,40.2992819 9.58755269,44 14,44 L10.7725458,44 C5.57531413,44 1,40.7533663 1,36.1895335 Z" id="Path" fill="#FFFFFF" opacity="0.4"></path>
                <g id="Group" transform="translate(11, 1)" fill="#231F20" opacity="0.38">
                    <path d="M7.89309796,3.03518038 L0,3.03518038 L0,1.45068496 C0,0.387960583 0.64684711,0 1.44184375,0 L6.45135029,0 C7.24634602,0 7.89309796,0.387960583 7.89309796,1.45068496 L7.89309796,3.03518038 Z" id="Path"></path>
                    <path d="M54.1460963,3.03518038 L46.2529992,3.03518038 L46.2529992,1.45068496 C46.2529992,0.387960583 46.8998481,0 47.6948439,0 L52.7043504,0 C53.4993461,0 54.1460963,0.387960583 54.1460963,1.45068496 L54.1460963,3.03518038 L54.1460963,3.03518038 Z" id="Path"></path>
                    <path d="M64,10.8459098 L63.9632057,35.3725488 C63.9632057,39.9313595 59.8758828,43 54.07728,43 L50.8002282,43 C55.2804817,43 58.9133771,39.3033579 58.9133771,34.7445472 L58.9133771,11.2994694 C58.9133771,6.7406587 55.2804817,3.04401476 50.8002282,3.04401476 L54.07728,3.04401476 C59.354381,3.04401476 64,6.2870986 64,10.8459098 Z" id="Path"></path>
                    <ellipse id="Oval" cx="49.6649095" cy="17.7960825" rx="1.75519363" ry="1.78597958"></ellipse>
                </g>
                <g id="color_index_3" transform="translate(67, 16)" fill="#ED4439">
                    <circle id="Oval" cx="2" cy="2" r="2"></circle>
                </g>
                <g id="color_index_2" transform="translate(63, 21)" fill="#4AAD51">
                    <circle id="Oval" cx="2" cy="2" r="2"></circle>
                </g>
                <g id="color_index_1" transform="translate(63, 12)" fill="#F6961B">
                    <circle id="Oval" cx="2" cy="2" r="2"></circle>
                </g>
                <g id="Group" transform="translate(6, 11)" fill="#FFFFFF" opacity="0.6">
                    <path d="M47.1758319,24.4961492 L16.2775326,24.4961492 C15.527898,24.4961492 14.9202217,23.8927963 14.9202217,23.1485515 L14.9202217,1.34759854 C14.9202217,0.603328445 15.5279217,0 16.2775326,0 L47.17581,0 C47.9254447,0 48.5331209,0.60335201 48.5331209,1.34759854 L48.5331209,23.1485515 C48.5331209,23.8928216 47.9254447,24.4961492 47.1758319,24.4961492 Z" id="Path"></path>
                    <path d="M9.49976982,5.57882177 L6.74714182,5.57882177 L6.74714182,2.84589226 C6.74714182,2.57392827 6.52508606,2.35343808 6.25113811,2.35343808 L3.74461218,2.35343808 C3.47068792,2.35343808 3.24860847,2.57390475 3.24860847,2.84589226 L3.24860847,5.57882175 L0.496003706,5.57882175 C0.222079449,5.57882175 0,5.79928842 0,6.07127685 L0,8.55984188 C0,8.83180677 0.222055762,9.05229699 0.496003706,9.05229699 L3.24860847,9.05229699 L3.24860847,11.7852265 C3.24860847,12.0571914 3.47066423,12.2776798 3.74461218,12.2776798 L6.251139,12.2776798 C6.52506325,12.2776798 6.7471427,12.0572131 6.7471427,11.7852246 L6.7471427,9.05229518 L9.49977163,9.05229518 C9.7736968,9.05229518 9.99577443,8.83182851 9.99577443,8.55984191 L9.99577443,6.07127685 C9.99577443,5.79931196 9.77369498,5.57882177 9.49976982,5.57882177 Z" id="Path"></path>
                    <ellipse id="Oval" cx="4.99787513" cy="23.5552179" rx="3.46961154" ry="3.44478211"></ellipse>
                    <ellipse id="Oval" cx="58.5303894" cy="23.5552179" rx="3.46961063" ry="3.44478121"></ellipse>
                    <polygon id="Path" points="48.5331428 23.650925 47.2743114 24.4961492 37.3783782 24.4961492 48.5261656 13.42814"></polygon>
                    <polygon id="Path" points="14.9677144 14.8922374 29.8701526 0.0964457705 25.1324319 0.0964457705 14.9202199 10.2356011"></polygon>
                    <polygon id="Path" points="14.9202199 17.0210789 31.8953267 0.167451159 40.6026308 0.167451159 16.18804 24.4073006 14.9202199 23.1485515"></polygon>
                </g>
                <g id="color_index_0" fill="#231F20">
                    <path d="M75.1466758,31.0091577 C74.6753794,31.0091577 74.2933295,31.3909008 74.2933295,31.8618187 L74.2933295,34.9904813 C74.2933295,39.0190776 71.0151507,42.2946275 66.9866924,42.2946275 L25.2032167,42.2946275 C24.7319203,42.2946275 24.3498686,42.6763705 24.3498686,43.1472884 C24.3498686,43.6182064 24.7319203,43.9999494 25.2032167,43.9999494 L66.9866648,43.9999494 C71.954629,43.9999494 76,39.9578271 76,34.9904776 L76,31.861815 C76,31.3909265 75.6179722,31.0091577 75.1466758,31.0091577 Z" id="Path"></path>
                    <path d="M17.0618064,42.2946532 L9.01333429,42.2946532 C4.98487602,42.2946532 1.70669439,39.0191033 1.70669439,34.990507 L1.70669439,11.8319658 C1.70669439,7.81467453 4.9962159,4.52779432 9.01673689,4.52779432 L24.9954116,4.52779432 C25.4657674,4.52779432 25.847046,4.14679756 25.847046,3.67684387 C25.847046,3.20686602 25.4657435,2.8258695 24.9954116,2.8258695 L19.3032035,2.8258695 L19.3032035,1.66742687 C19.3032035,0.747938543 18.5546875,0 17.6345572,0 L11.8366739,0 C10.9165427,0 10.167931,0.747938543 10.167931,1.66742687 L10.167931,2.82584557 L9.01333429,2.82584557 C4.04537148,2.82586972 0,6.86456932 0,11.8319658 L0,34.9905282 C0,39.9578777 4.04537148,44 9.01333429,44 L17.0618064,44 C17.5331029,44 17.9151546,43.618257 17.9151546,43.147339 C17.9151546,42.6764211 17.5331029,42.2946532 17.0618064,42.2946532 Z M11.8726715,1.70339543 L17.598464,1.70339543 L17.598464,2.82584559 L11.8726715,2.82584559 L11.8726715,1.70339543 Z" id="Shape"></path>
                    <path d="M66.9866629,2.82586972 L65.8319944,2.82586972 L65.8319944,1.66742687 C65.8319944,0.747938591 65.0834527,0 64.1634421,0 L58.3655366,0 C57.4453346,0 56.6967928,0.747938543 56.6967928,1.66742687 L56.6967928,2.82584557 L33.1368164,2.82584557 C32.6664624,2.82584557 32.2851563,3.20684233 32.2851563,3.67681993 C32.2851563,4.14679753 32.6664588,4.52777038 33.1368164,4.52777038 L66.986685,4.52777038 C71.0220424,4.52777038 74.2933222,7.79644833 74.2933222,11.828542 L74.2933222,25.2465231 C74.2933222,25.7174171 74.675372,26.0991601 75.1466685,26.0991601 C75.6179649,26.0991601 76,25.7174667 76,25.2465727 L76,11.8319658 C76,6.86456932 71.954629,2.82586972 66.9866629,2.82586972 Z M58.40156,1.70339543 L64.127231,1.70339543 L64.127231,2.82584559 L58.40156,2.82584559 L58.40156,1.70339543 L58.40156,1.70339543 Z" id="Shape"></path>
                    <path d="M6.59378601,34.8982936 C6.59378601,37.297434 8.54720298,39.2492836 10.9482964,39.2492836 C13.3494626,39.2492836 15.3028791,37.2974119 15.3028791,34.8982936 C15.3028791,32.4991754 13.3494617,30.5472798 10.9482964,30.5472798 C8.54720298,30.5472798 6.59378601,32.4991533 6.59378601,34.8982936 Z M13.5981387,34.8982936 C13.5981387,36.3582025 12.4094744,37.5459113 10.9482964,37.5459113 C9.48721419,37.5459113 8.29855084,36.3582025 8.29855084,34.8982936 C8.29855084,33.4383848 9.48721511,32.250676 10.9482964,32.250676 C12.4094744,32.250676 13.5981387,33.4383848 13.5981387,34.8982936 Z" id="Shape"></path>
                    <path d="M60.7006735,34.8982826 C60.7006735,37.297423 62.654114,39.2492726 65.0551789,39.2492726 C67.4564426,39.2492726 69.4099051,37.2974009 69.4099051,34.8982826 C69.4099051,32.4991644 67.4564647,30.5472706 65.0551789,30.5472706 C62.654114,30.5472706 60.7006735,32.4991423 60.7006735,34.8982826 Z M65.0551789,32.250665 C66.5164562,32.250665 67.7051417,33.4383737 67.7051417,34.8982826 C67.7051417,36.3581915 66.5164783,37.5459002 65.0551789,37.5459002 C63.5941003,37.5459002 62.4054296,36.3581915 62.4054296,34.8982826 C62.4054296,33.4383737 63.5941003,32.250665 65.0551789,32.250665 Z" id="Shape"></path>
                    <path d="M16.8455339,19.6652987 L16.8455339,17.1372554 C16.8455339,16.3918235 16.2384992,15.7852764 15.4924683,15.7852764 L13.5663877,15.7852764 L13.5663877,13.8608383 C13.5663877,13.1154073 12.959377,12.5088593 12.2133221,12.5088593 L9.68334351,12.5088593 C8.93728862,12.5088593 8.3302779,13.1154064 8.3302779,13.8608383 L8.3302779,15.7852764 L6.40419641,15.7852764 C5.65816591,15.7852764 5.05113079,16.3918235 5.05113079,17.1372554 L5.05113079,19.6652987 C5.05113079,20.4107545 5.65816588,21.0172777 6.40419641,21.0172777 L8.3302779,21.0172777 L8.3302779,22.9417149 C8.3302779,23.6871707 8.93728862,24.2936939 9.68334351,24.2936939 L12.213323,24.2936939 C12.9593779,24.2936939 13.5663886,23.6871707 13.5663886,22.9417149 L13.5663886,21.0172777 L15.4924683,21.0172777 C16.2384992,21.0172777 16.8455339,20.4107545 16.8455339,19.6652987 Z M15.1407713,19.3138833 L11.8616242,19.3138833 L11.8616242,22.5902995 L10.0350423,22.5902995 L10.0350423,19.3138833 L6.75589608,19.3138833 L6.75589608,17.4886487 L10.0350423,17.4886487 L10.0350423,14.2122546 L11.8616242,14.2122546 L11.8616242,17.4886708 L15.1407713,17.4886708 L15.1407713,19.3138833 Z" id="Shape"></path>
                    <path d="M71.9264583,18.4012899 C71.9264583,16.9588357 70.7519318,15.7852764 69.3083403,15.7852764 C67.8647488,15.7852764 66.6902518,16.9588596 66.6902518,18.4012899 C66.6902518,19.8437203 67.8647783,21.0172796 69.3083403,21.0172796 C70.7519318,21.0172796 71.9264583,19.8436964 71.9264583,18.4012899 Z M69.3083182,19.3138833 C68.8047425,19.3138833 68.3949932,18.904463 68.3949932,18.4012899 C68.3949932,17.8980671 68.8047425,17.4886726 69.3083182,17.4886726 C69.8119454,17.4886726 70.2216727,17.8980929 70.2216727,18.4012899 C70.2216948,18.904463 69.8119454,19.3138833 69.3083182,19.3138833 Z" id="Shape"></path>
                    <path d="M58.184113,18.4012899 C58.184113,19.8437203 59.3586395,21.0172796 60.8022273,21.0172796 C62.2458151,21.0172796 63.420128,19.8436964 63.420128,18.4012899 C63.420128,16.9588357 62.2458225,15.7852764 60.802231,15.7852764 C59.3586395,15.7852764 58.184113,16.9588338 58.184113,18.4012899 Z M61.7153609,18.4012899 C61.7153609,18.9044888 61.3058288,19.3138833 60.8022273,19.3138833 C60.2986001,19.3138833 59.8888765,18.9044631 59.8888765,18.4012899 C59.8888765,17.8980672 60.2986258,17.4886726 60.8022273,17.4886726 C61.3058288,17.4886469 61.7153609,17.8980671 61.7153609,18.4012899 Z" id="Shape"></path>
                    <path d="M67.6732821,22.6510026 C67.6732821,21.2085723 66.4987557,20.035013 65.0551936,20.035013 C63.6116021,20.035013 62.4372966,21.2085962 62.4372966,22.6510026 C62.4372966,24.0934569 63.6116021,25.2670162 65.0551936,25.2670162 C66.4987557,25.2670162 67.6732821,24.0934569 67.6732821,22.6510026 Z M64.1420306,22.6510026 C64.1420306,22.1478037 64.5515885,21.7383853 65.0551862,21.7383853 C65.558784,21.7383853 65.9685407,22.1478295 65.9685407,22.6510026 C65.9685407,23.1541757 65.5587693,23.5636199 65.0551862,23.5636199 C64.5516032,23.5636199 64.1420306,23.1541996 64.1420306,22.6510026 Z" id="Shape"></path>
                    <path d="M65.0551862,11.535732 C63.6115947,11.535732 62.4372892,12.7090972 62.4372892,14.1515276 C62.4372892,15.5939818 63.6115947,16.7675411 65.0551862,16.7675411 C66.4987778,16.7675411 67.6732747,15.5939579 67.6732747,14.1515276 C67.6732747,12.7090973 66.4987557,11.535732 65.0551862,11.535732 Z M65.0551862,15.0641449 C64.5515811,15.0641449 64.1420306,14.6547016 64.1420306,14.1515276 C64.1420306,13.6483296 64.5515885,13.2391025 65.0551862,13.2391025 C65.558784,13.2391025 65.9685407,13.6483287 65.9685407,14.1515276 C65.9685407,14.6547255 65.5587693,15.0641449 65.0551862,15.0641449 Z" id="Shape"></path>
                    <path d="M53.5900129,35.0040072 L50.7680732,35.0040072 C50.2977192,35.0040072 49.9164131,35.3850035 49.9164131,35.8549834 C49.9164131,36.3249596 50.2977156,36.7059339 50.7680732,36.7059339 L53.5933925,36.7059339 C54.8215509,36.7059339 55.8171277,35.7111345 55.8171277,34.4839588 L55.8171277,12.3384689 C55.8171277,11.111295 54.821503,10.1164948 53.5933668,10.1164948 L22.4066093,10.1164948 C21.1784731,10.1164948 20.1828503,11.111295 20.1828503,12.3384689 L20.1828503,23.4399257 C20.1828503,23.9108197 20.564902,24.2925628 21.0361984,24.2925628 C21.5074948,24.2925628 21.8895207,23.9108179 21.8895207,23.4399257 L21.8895207,12.338491 C21.8895207,12.0531291 22.1210439,11.8218167 22.4066112,11.8218167 L53.5933667,11.8218167 C53.8789322,11.8218167 54.1104314,12.0531291 54.1104314,12.3384671 L54.1104314,34.4839809 C54.1104572,34.7712005 53.8774375,35.0040072 53.5900129,35.0040072 Z" id="Path"></path>
                    <path d="M43.0389451,35.8549797 C43.0389451,35.3850035 42.6576426,35.0040035 42.1873107,35.0040035 L22.4099871,35.0040035 C22.1225625,35.0040035 21.8895447,34.7711968 21.8895447,34.4839772 L21.8895447,28.2485927 C21.8895447,27.7776748 21.507493,27.3959299 21.0362223,27.3959299 C20.5649516,27.3959299 20.1828742,27.7776748 20.1828742,28.2485927 L20.1828742,34.4839772 C20.1828742,35.7111493 21.1784988,36.7059523 22.4066332,36.7059523 L42.1873364,36.7059523 C42.6576426,36.7059523 43.0389451,36.3249597 43.0389451,35.8549797 Z" id="Path"></path>
                </g>
            </g>
            <text id="GameHUB" font-family="BalooCyrillic, Baloo Cyrillic" font-size="24" font-weight="normal" fill="#FFFFFF">
                <tspan x="84" y="28">GameHUB</tspan>
            </text>
        </g>
    </g>
</svg>