<svg width="36.000000" height="36.000000" viewBox="0 0 36 36" fill="none" xmlns="http://www.w3.org/2000/svg" xmlns:xlink="http://www.w3.org/1999/xlink">
	<desc>
			Created with Pixso.
	</desc>
	<defs>
		<clipPath id="clip15_1403">
			<rect id="Heart" width="36.000000" height="36.000000" fill="white" fill-opacity="0"/>
		</clipPath>
	</defs>
	<g clip-path="url(#clip15_1403)">
		<path id="path" d="M11.74 14.3L11.77 14.3C12.17 14.79 12.1 15.48 11.61 15.88C11.12 16.28 10.42 16.21 10.03 15.72L10.03 15.69L11.74 14.3ZM24.61 14.53L24.59 14.52C24.3 13.96 24.51 13.3 25.07 13.01C25.63 12.72 26.3 12.93 26.59 13.49L26.58 13.52L24.61 14.53Z" fill="#000000" fill-opacity="0" fill-rule="nonzero"/>
		<path id="path" d="M10.9 15.01C9.63 13.45 8.45 13.12 7.33 14.01C5.67 15.34 5.19 19.98 6.53 24.08C7.87 28.17 10.48 33.75 15.75 33.75C21.01 33.75 22.26 28.14 24.41 24.75C26.55 21.35 27.69 18.08 25.59 14.01" stroke="#FFFFFF" stroke-opacity="1.000000" stroke-width="2.250000" stroke-linejoin="round" stroke-linecap="round"/>
		<path id="path" d="M9.16 12.9L9.19 12.91C9.53 13.43 9.39 14.12 8.86 14.46C8.34 14.81 7.65 14.67 7.3 14.14L7.31 14.11L9.16 12.9ZM12.58 10.19L12.61 10.19C13 10.69 12.92 11.38 12.43 11.77C11.93 12.16 11.24 12.08 10.85 11.59L10.85 11.56L12.58 10.19Z" fill="#000000" fill-opacity="0" fill-rule="nonzero"/>
		<path id="path" d="M8.25 13.52C6.97 11.58 5.97 10.07 5.25 9C4.16 7.39 6.93 5.31 8.25 6.72C9.12 7.66 10.28 9.05 11.73 10.89" stroke="#FFFFFF" stroke-opacity="1.000000" stroke-width="2.250000" stroke-linecap="round"/>
		<path id="path" d="M12.36 19.12L12.38 19.14C12.43 19.76 11.98 20.3 11.35 20.35C10.72 20.4 10.19 19.94 10.14 19.31L10.16 19.29L12.36 19.12ZM23.61 8.62L23.64 8.62C24.08 9.07 24.07 9.77 23.62 10.21C23.17 10.65 22.47 10.64 22.03 10.19L22.03 10.16L23.61 8.62Z" fill="#000000" fill-opacity="0" fill-rule="nonzero"/>
		<path id="path" d="M11.26 19.22C10.9 14.68 11.2 11.72 12.15 10.34C13.58 8.28 16.24 7.5 18.75 7.5C20.24 7.5 21.6 8.13 22.83 9.4" stroke="#FFFFFF" stroke-opacity="1.000000" stroke-width="2.250000" stroke-linejoin="round" stroke-linecap="round"/>
		<path id="path" d="M30.75 9.45C31.18 10.98 30.47 12.38 28.26 12.69C26.05 13.01 24.39 14.12 23.2 15.05C22 15.99 19.87 18.82 19.45 20.25C19.03 21.67 16.62 20.36 15.97 19.79C15.32 19.22 14.68 17.98 15.97 16.68C17.25 15.38 16.97 15.12 16.97 13.8C16.97 12.48 24 8.11 27.95 7.72C28.83 7.66 30.31 7.93 30.75 9.45Z" fill="#000000" fill-opacity="0" fill-rule="evenodd"/>
		<path id="path" d="M28.26 12.69C26.05 13.01 24.39 14.12 23.2 15.05C22 15.99 19.87 18.82 19.45 20.25C19.03 21.67 16.62 20.36 15.97 19.79C15.32 19.22 14.68 17.98 15.97 16.68C17.25 15.38 16.97 15.12 16.97 13.8C16.97 12.48 24 8.11 27.95 7.72C28.83 7.66 30.31 7.93 30.75 9.45C31.18 10.98 30.47 12.38 28.26 12.69Z" stroke="#FFFFFF" stroke-opacity="1.000000" stroke-width="2.250000"/>
		<path id="path" d="M16.15 3.02L16.13 3C16.13 2.37 16.62 1.87 17.25 1.87C17.88 1.87 18.38 2.37 18.38 3L18.36 3.02L16.15 3.02ZM18.36 6.92L18.38 6.94C18.38 7.57 17.88 8.07 17.25 8.07C16.62 8.07 16.13 7.57 16.13 6.94L16.15 6.92L18.36 6.92Z" fill="#000000" fill-opacity="0" fill-rule="nonzero"/>
		<path id="path" d="M17.25 3L17.25 6.94" stroke="#FFFFFF" stroke-opacity="1.000000" stroke-width="2.250000" stroke-linecap="round"/>
		<path id="path" d="M16.08 7.33L16.11 7.33C16.5 7.83 16.42 8.52 15.93 8.91C15.43 9.31 14.74 9.23 14.34 8.73L14.35 8.71L16.08 7.33ZM9.51 4.35L9.49 4.37C8.88 4.22 8.51 3.62 8.66 3.01C8.8 2.4 9.4 2.03 10.01 2.18L10.03 2.2L9.51 4.35Z" fill="#000000" fill-opacity="0" fill-rule="nonzero"/>
		<path id="path" d="M15.23 8.03C12.96 5.19 11.14 3.6 9.75 3.27" stroke="#FFFFFF" stroke-opacity="1.000000" stroke-width="2.250000" stroke-linecap="round"/>
		<path id="path" d="M13.83 5.51L13.84 5.53C13.69 6.15 13.09 6.51 12.48 6.36C11.87 6.21 11.51 5.61 11.65 5L11.68 4.99L13.83 5.51ZM12.41 1.97L12.4 1.95C12.55 1.34 13.14 0.97 13.76 1.12C14.37 1.27 14.73 1.87 14.58 2.48L14.56 2.5L12.41 1.97Z" fill="#000000" fill-opacity="0" fill-rule="nonzero"/>
		<path id="path" d="M12.75 5.27L13.49 2.22" stroke="#FFFFFF" stroke-opacity="1.000000" stroke-width="2.250000" stroke-linecap="round"/>
		<path id="path" d="M25.64 7.74L25.62 7.72C25.8 7.11 26.41 6.78 27.02 6.95C27.62 7.13 27.96 7.74 27.78 8.35L27.76 8.36L25.64 7.74ZM29.04 11.91L29.07 11.91C29.51 12.37 29.49 13.07 29.04 13.51C28.58 13.94 27.88 13.93 27.45 13.47L27.45 13.44L29.04 11.91Z" fill="#000000" fill-opacity="0" fill-rule="nonzero"/>
		<path id="path" d="M26.7 8.03C26.46 8.86 26.46 9.64 26.7 10.36C26.95 11.09 27.46 11.86 28.26 12.69" stroke="#FFFFFF" stroke-opacity="1.000000" stroke-width="2.250000" stroke-linecap="round"/>
	</g>
</svg>
