<svg width="24.000000" height="24.000000" viewBox="0 0 24 24" fill="none" xmlns="http://www.w3.org/2000/svg" xmlns:xlink="http://www.w3.org/1999/xlink">
	<desc>
			Created with Pixso.
	</desc>
	<defs>
		<clipPath id="clip15_1452">
			<rect id="Cart" width="24.000000" height="24.000000" fill="white" fill-opacity="0"/>
		</clipPath>
	</defs>
	<g clip-path="url(#clip15_1452)">
		<path id="path" d="M19.5 16L6.5 16L4 6L22 6L19.5 16Z" fill="#000000" fill-opacity="0" fill-rule="nonzero"/>
		<path id="path" d="M4 6L6.5 16L19.5 16L22 6L4 6ZM1.52 3.72L1.5 3.75C1.08 3.75 0.75 3.41 0.75 3C0.75 2.58 1.08 2.25 1.5 2.25L1.52 2.27L1.52 3.72Z" fill="#000000" fill-opacity="0" fill-rule="nonzero"/>
		<path id="path" d="M1.5 3L3.25 3L4 6L6.5 16L19.5 16L22 6L4 6" stroke="#FFFFFF" stroke-opacity="1.000000" stroke-width="1.500000" stroke-linejoin="round" stroke-linecap="round"/>
		<circle id="circle" cx="6.500000" cy="19.500000" r="1.500000" fill="#000000" fill-opacity="0"/>
		<circle id="circle" cx="6.500000" cy="19.500000" r="1.500000" stroke="#FFFFFF" stroke-opacity="1.000000" stroke-width="1.500000" stroke-linejoin="round"/>
		<circle id="circle" cx="19.500000" cy="19.500000" r="1.500000" fill="#000000" fill-opacity="0"/>
		<circle id="circle" cx="19.500000" cy="19.500000" r="1.500000" stroke="#FFFFFF" stroke-opacity="1.000000" stroke-width="1.500000" stroke-linejoin="round"/>
	</g>
</svg>
