<svg width="320.000000" height="72.000000" viewBox="0 0 320 72" fill="none" xmlns="http://www.w3.org/2000/svg" xmlns:xlink="http://www.w3.org/1999/xlink">
	<desc>
			Created with Pixso.
	</desc>
	<defs>
		<clipPath id="clip13_1403">
			<rect id="Right - arrow" width="24.000000" height="24.000000" transform="translate(272.000000 24.000000)" fill="white" fill-opacity="0"/>
		</clipPath>
		<clipPath id="clip13_1399">
			<rect id="Left arrow" width="24.000000" height="24.000000" transform="translate(24.000000 24.000000)" fill="white" fill-opacity="0"/>
		</clipPath>
		<clipPath id="clip13_1416">
			<rect id="Banner navigation" width="320.000000" height="72.000000" fill="white" fill-opacity="0"/>
		</clipPath>
	</defs>
	<g clip-path="url(#clip13_1416)">
		<g clip-path="url(#clip13_1403)">
			<path id="path" d="M284 46C289.52 46 294 41.52 294 36C294 30.47 289.52 26 284 26C278.47 26 274 30.47 274 36C274 41.52 278.47 46 284 46Z" fill="#000000" fill-opacity="0" fill-rule="nonzero"/>
			<path id="path" d="M294 36C294 30.47 289.52 26 284 26C278.47 26 274 30.47 274 36C274 41.52 278.47 46 284 46C289.52 46 294 41.52 294 36Z" stroke="#808080" stroke-opacity="1.000000" stroke-width="1.500000" stroke-linejoin="round"/>
			<path id="path" d="M279.26 36.98L279.24 37C278.82 37 278.49 36.66 278.49 36.25C278.49 35.83 278.82 35.5 279.24 35.5L279.26 35.52L279.26 36.98ZM288.22 35.52L288.24 35.5C288.66 35.5 288.99 35.83 288.99 36.25C288.99 36.66 288.66 37 288.24 37L288.22 36.98L288.22 35.52Z" fill="#000000" fill-opacity="0" fill-rule="nonzero"/>
			<path id="path" d="M279.24 36.25L288.24 36.25" stroke="#808080" stroke-opacity="1.000000" stroke-width="1.500000" stroke-linejoin="round" stroke-linecap="round"/>
			<path id="path" d="M283.24 32.28L283.21 32.28C282.91 31.98 282.91 31.51 283.21 31.21C283.51 30.92 283.97 30.92 284.27 31.21L284.27 31.24L283.24 32.28ZM284.27 41.25L284.27 41.28C283.97 41.57 283.51 41.57 283.21 41.28C282.91 40.98 282.91 40.51 283.21 40.21L283.24 40.21L284.27 41.25Z" fill="#000000" fill-opacity="0" fill-rule="nonzero"/>
			<path id="path" d="M283.74 31.75L288.24 36.25L283.74 40.75" stroke="#808080" stroke-opacity="1.000000" stroke-width="1.500000" stroke-linejoin="round" stroke-linecap="round"/>
		</g>
		<g clip-path="url(#clip13_1399)">
			<path id="path" d="M36 46C41.52 46 46 41.52 46 36C46 30.47 41.52 26 36 26C30.47 26 26 30.47 26 36C26 41.52 30.47 46 36 46Z" fill="#000000" fill-opacity="0" fill-rule="nonzero"/>
			<path id="path" d="M46 36C46 30.47 41.52 26 36 26C30.47 26 26 30.47 26 36C26 41.52 30.47 46 36 46C41.52 46 46 41.52 46 36Z" stroke="#808080" stroke-opacity="1.000000" stroke-width="1.500000" stroke-linejoin="round"/>
			<path id="path" d="M31.26 36.98L31.24 37C30.82 37 30.49 36.66 30.49 36.25C30.49 35.83 30.82 35.5 31.24 35.5L31.26 35.52L31.26 36.98ZM40.22 35.52L40.24 35.5C40.66 35.5 40.99 35.83 40.99 36.25C40.99 36.66 40.66 37 40.24 37L40.22 36.98L40.22 35.52Z" fill="#000000" fill-opacity="0" fill-rule="nonzero"/>
			<path id="path" d="M31.24 36.25L40.24 36.25" stroke="#808080" stroke-opacity="1.000000" stroke-width="1.500000" stroke-linejoin="round" stroke-linecap="round"/>
			<path id="path" d="M35.21 31.24L35.21 31.21C35.51 30.92 35.97 30.92 36.27 31.21C36.57 31.51 36.57 31.98 36.27 32.28L36.24 32.28L35.21 31.24ZM36.24 40.21L36.27 40.21C36.57 40.51 36.57 40.98 36.27 41.28C35.97 41.57 35.51 41.57 35.21 41.28L35.21 41.25L36.24 40.21Z" fill="#000000" fill-opacity="0" fill-rule="nonzero"/>
			<path id="path" d="M35.74 31.75L31.24 36.25L35.74 40.75" stroke="#808080" stroke-opacity="1.000000" stroke-width="1.500000" stroke-linejoin="round" stroke-linecap="round"/>
		</g>
	</g>
</svg>
