<svg width="24.000000" height="24.000000" viewBox="0 0 24 24" fill="none" xmlns="http://www.w3.org/2000/svg" xmlns:xlink="http://www.w3.org/1999/xlink">
	<desc>
			Created with Pixso.
	</desc>
	<defs>
		<clipPath id="clip13_1348">
			<rect id="Search button" width="24.000000" height="24.000000" fill="white" fill-opacity="0"/>
		</clipPath>
	</defs>
	<g clip-path="url(#clip13_1348)">
		<path id="path" d="M10.5 19C15.19 19 19 15.19 19 10.5C19 5.8 15.19 2 10.5 2C5.8 2 2 5.8 2 10.5C2 15.19 5.8 19 10.5 19Z" fill="#000000" fill-opacity="0" fill-rule="nonzero"/>
		<path id="path" d="M19 10.5C19 5.8 15.19 2 10.5 2C5.8 2 2 5.8 2 10.5C2 15.19 5.8 19 10.5 19C15.19 19 19 15.19 19 10.5Z" stroke="#FFFFFF" stroke-opacity="1.000000" stroke-width="1.500000" stroke-linejoin="round"/>
		<path id="path" d="M13.83 6.64L13.85 6.64C14.15 6.93 14.15 7.4 13.85 7.7C13.56 7.99 13.09 7.99 12.79 7.7L12.79 7.67L13.83 6.64ZM8.2 7.67L8.2 7.7C7.9 7.99 7.43 7.99 7.14 7.7C6.84 7.4 6.84 6.93 7.14 6.64L7.16 6.64L8.2 7.67Z" fill="#000000" fill-opacity="0" fill-rule="nonzero"/>
		<path id="path" d="M13.32 7.17C12.6 6.44 11.6 6 10.5 6C9.39 6 8.39 6.44 7.67 7.17" stroke="#FFFFFF" stroke-opacity="1.000000" stroke-width="1.500000" stroke-linejoin="round" stroke-linecap="round"/>
		<path id="path" d="M16.1 17.14L16.08 17.14C15.78 16.84 15.78 16.37 16.08 16.08C16.37 15.78 16.84 15.78 17.14 16.08L17.14 16.1L16.1 17.14ZM21.35 20.32L21.38 20.32C21.68 20.62 21.68 21.08 21.38 21.38C21.08 21.68 20.62 21.68 20.32 21.38L20.32 21.35L21.35 20.32Z" fill="#000000" fill-opacity="0" fill-rule="nonzero"/>
		<path id="path" d="M16.61 16.61L20.85 20.85" stroke="#FFFFFF" stroke-opacity="1.000000" stroke-width="1.500000" stroke-linejoin="round" stroke-linecap="round"/>
	</g>
</svg>
