<svg width="24.000000" height="24.000000" viewBox="0 0 24 24" fill="none" xmlns="http://www.w3.org/2000/svg" xmlns:xlink="http://www.w3.org/1999/xlink">
	<desc>
			Created with Pixso.
	</desc>
	<defs>
		<clipPath id="clip13_1375">
			<rect id="Up arrow" width="24.000000" height="24.000000" fill="white" fill-opacity="0"/>
		</clipPath>
	</defs>
	<g clip-path="url(#clip13_1375)">
		<path id="path" d="M12 22C17.52 22 22 17.52 22 12C22 6.47 17.52 2 12 2C6.47 2 2 6.47 2 12C2 17.52 6.47 22 12 22Z" fill="#000000" fill-opacity="0" fill-rule="nonzero"/>
		<path id="path" d="M22 12C22 6.47 17.52 2 12 2C6.47 2 2 6.47 2 12C2 17.52 6.47 22 12 22C17.52 22 22 17.52 22 12Z" stroke="#FFFFFF" stroke-opacity="1.000000" stroke-width="1.500000" stroke-linejoin="round"/>
		<path id="path" d="M11.27 7.77L11.25 7.75C11.25 7.33 11.58 7 12 7C12.41 7 12.75 7.33 12.75 7.75L12.73 7.77L11.27 7.77ZM12.73 16.73L12.75 16.75C12.75 17.17 12.41 17.5 12 17.5C11.58 17.5 11.25 17.17 11.25 16.75L11.27 16.73L12.73 16.73Z" fill="#000000" fill-opacity="0" fill-rule="nonzero"/>
		<path id="path" d="M12 7.75L12 16.75" stroke="#FFFFFF" stroke-opacity="1.000000" stroke-width="1.500000" stroke-linejoin="round" stroke-linecap="round"/>
		<path id="path" d="M17 11.71L17.03 11.71C17.32 12.01 17.32 12.48 17.03 12.78C16.73 13.07 16.26 13.07 15.96 12.78L15.96 12.75L17 11.71ZM8.03 12.75L8.03 12.78C7.73 13.07 7.26 13.07 6.96 12.78C6.67 12.48 6.67 12.01 6.96 11.71L6.99 11.71L8.03 12.75Z" fill="#000000" fill-opacity="0" fill-rule="nonzero"/>
		<path id="path" d="M16.5 12.25L12 7.75L7.5 12.25" stroke="#FFFFFF" stroke-opacity="1.000000" stroke-width="1.500000" stroke-linejoin="round" stroke-linecap="round"/>
	</g>
</svg>
