<svg width="79" height="56" viewBox="0 0 79 56" fill="none" xmlns="http://www.w3.org/2000/svg">
<g clip-path="url(#clip0_448_208)">
<path d="M0.635817 55.6783C0.551534 55.6782 0.470731 55.6443 0.411134 55.584C0.351536 55.5237 0.31801 55.4419 0.317909 55.3566L0.320199 23.2906C0.320199 21.5585 1.11402 19.8472 2.49671 18.5944C3.84467 17.3751 5.62923 16.7027 7.52179 16.7027H20.2725V15.816C20.2718 15.7737 20.2797 15.7318 20.2955 15.6926C20.3114 15.6535 20.335 15.6181 20.3648 15.5885C20.4245 15.5283 20.5053 15.4945 20.5896 15.4943H34.4146C34.4565 15.4942 34.498 15.5025 34.5367 15.5187C34.5754 15.5349 34.6106 15.5587 34.6402 15.5887C34.6698 15.6187 34.6932 15.6543 34.7091 15.6935C34.725 15.7327 34.7331 15.7748 34.7329 15.8172L34.7276 18.2653H41.0415C42.897 16.8819 45.1021 16.7661 45.7421 16.7637H51.1141V11.5963C51.1141 9.45208 52.8373 7.70835 54.9558 7.70835H58.4134V4.2097C58.4134 2.06625 60.1366 0.322144 62.2551 0.322144H67.3511C69.4696 0.322144 71.1927 2.06587 71.1927 4.2097V7.70874H74.6508C76.7693 7.70874 78.4924 9.45246 78.4924 11.5963V16.7537C78.4924 18.8972 76.7693 20.6409 74.6508 20.6409H71.1927V24.1403C71.1927 26.2837 69.4696 28.0279 67.3511 28.0279H62.2241V47.7642C62.2242 47.8064 62.216 47.8483 62.2 47.8874C62.1841 47.9264 62.1607 47.9619 62.1311 47.9918C62.1016 48.0217 62.0665 48.0454 62.028 48.0615C61.9894 48.0777 61.948 48.086 61.9062 48.0859H45.7368C45.4677 48.0859 44.0564 48.0527 42.5799 47.4514C42.1341 47.2702 41.7074 47.0442 41.3063 46.7767C40.9062 47.0446 40.4805 47.2709 40.0354 47.4521C38.5604 48.0569 37.154 48.0936 36.8869 48.0948H27.5595C27.2901 48.0925 25.8849 48.0538 24.4129 47.4502C24.3137 47.4093 24.2137 47.3652 24.1152 47.3204V48.9634C24.1152 49.3774 24.0431 50.8434 23.1657 52.3489C22.4406 53.5909 20.6659 55.6756 16.9239 55.6756L0.635817 55.6799V55.6783Z" fill="black"/>
<path d="M3.81719 23.2906L3.8149 41.5505C3.8149 44.5424 7.53667 44.5606 7.53667 44.5606H13.1247V46.0942H3.8149V52.1384L16.9239 52.1353C20.6129 52.1353 20.619 48.9618 20.619 48.9618V20.2419H7.52217C5.27773 20.2419 3.81757 21.8678 3.81757 23.2906H3.81719ZM11.3073 26.3339H13.1216V38.5165H11.3073V26.3339ZM40.5705 29.3711H33.1727V38.5188H31.3233V27.8417H40.5716V21.8053H31.2237L31.2302 19.0354H23.7748L23.7794 21.8053H22.0276V27.8417H23.8778V41.5397C23.8778 44.5351 27.5805 44.5563 27.5805 44.5563H36.8743C36.8743 44.5563 40.5751 44.5401 40.5751 41.5385H40.5728V29.3722L40.5705 29.3711ZM55.0256 20.3029H45.7368C45.7368 20.3029 42.0375 20.2964 42.0375 23.3656V27.8579H49.4777V26.3749H51.2847V29.3892H45.7357C45.7357 29.3892 42.0375 29.3838 42.0375 32.4028V41.5366C42.0375 44.5393 45.7357 44.5467 45.7357 44.5467H58.726V23.3656C58.726 20.2964 55.0244 20.3029 55.0244 20.3029H55.0256ZM51.2847 38.5211H49.4777V35.4635H51.2847V38.5211Z" fill="white"/>
<path d="M74.6497 11.2475H67.695V4.20922C67.695 4.01611 67.5401 3.86047 67.3504 3.86047H62.2543C62.0635 3.86047 61.9097 4.01727 61.9097 4.20922V11.2475H54.9546C54.7638 11.2475 54.6104 11.4039 54.6104 11.5958V16.7536C54.6104 16.9467 54.7649 17.102 54.9546 17.102H61.9097V24.1402C61.9097 24.3333 62.0646 24.4886 62.2543 24.4886H67.3504C67.5412 24.4886 67.695 24.3321 67.695 24.1402V17.1016H74.6497C74.8405 17.1016 74.9943 16.9452 74.9943 16.7532V11.5958C74.9943 11.4027 74.8393 11.2475 74.6497 11.2475Z" fill="#FCAF17"/>
<path d="M64.3552 29.4622C64.6445 29.4622 64.7888 29.5846 64.7888 29.8302C64.7888 30.0337 64.6773 30.1508 64.4537 30.1805L64.8174 30.749H64.6045L64.2579 30.1956H64.048V30.749H63.8499V29.4622H64.3552ZM64.277 30.0337C64.3976 30.0337 64.4793 30.0175 64.5251 29.9855C64.5693 29.9534 64.5915 29.8986 64.5915 29.8225C64.5915 29.6908 64.5026 29.6255 64.3236 29.6255H64.0503V30.0349H64.277V30.0337Z" fill="white"/>
<path d="M64.2766 31.2167C63.9852 31.2164 63.7059 31.0991 63.4999 30.8906C63.2939 30.6821 63.1781 30.3993 63.1779 30.1045C63.1781 29.8096 63.2939 29.5269 63.4999 29.3183C63.7059 29.1098 63.9852 28.9925 64.2766 28.9922C64.568 28.9924 64.8475 29.1096 65.0536 29.3182C65.2597 29.5267 65.3755 29.8095 65.3757 30.1045C65.3755 30.3994 65.2597 30.6822 65.0536 30.8907C64.8475 31.0993 64.568 31.2165 64.2766 31.2167ZM64.2766 29.166C64.0308 29.1663 63.7951 29.2653 63.6213 29.4412C63.4475 29.6172 63.3498 29.8557 63.3496 30.1045C63.3498 30.3532 63.4475 30.5918 63.6213 30.7677C63.7951 30.9437 64.0308 31.0426 64.2766 31.0429C64.5225 31.0427 64.7583 30.9438 64.9321 30.7678C65.106 30.5919 65.2038 30.3533 65.204 30.1045C65.2038 29.8556 65.106 29.617 64.9321 29.4411C64.7583 29.2651 64.5225 29.1662 64.2766 29.166Z" fill="white"/>
</g>
<defs>
<clipPath id="clip0_448_208">
<rect width="79" height="56" fill="white"/>
</clipPath>
</defs>
</svg>
