<svg width="180" height="38" viewBox="0 0 180 38" fill="none" xmlns="http://www.w3.org/2000/svg">
<path d="M57.657 16.2181C57.657 17.6092 57.281 18.7716 56.5683 19.5763C55.9935 20.2437 55.1612 20.634 54.2805 20.6492H51.8664C51.8542 20.6493 51.8427 20.6441 51.8346 20.6351C51.8265 20.626 51.8228 20.6139 51.8243 20.6019V19.1397C51.8236 19.1281 51.8277 19.1167 51.8357 19.1083C51.8436 19.0998 51.8547 19.095 51.8664 19.095H53.552C54.5724 19.095 55.1299 18.0642 55.1299 16.2023C55.1299 14.3405 54.5697 13.3096 53.552 13.3096H50.7514C50.7514 13.3096 50.7382 13.3096 50.7382 13.3307V25.9113C50.7369 25.9354 50.7176 25.9547 50.6935 25.956H48.2505C48.2254 25.956 48.2046 25.9364 48.2032 25.9113V11.808C48.2038 11.7962 48.2092 11.7851 48.2181 11.7772C48.227 11.7693 48.2386 11.7652 48.2505 11.7659H54.2831C56.3396 11.7686 57.657 13.5174 57.657 16.2181ZM61.6569 11.7659H59.2086C59.1967 11.7652 59.1851 11.7693 59.1762 11.7772C59.1673 11.7851 59.1619 11.7962 59.1613 11.808V25.9218C59.1626 25.9469 59.1834 25.9665 59.2086 25.9665H61.6569C61.681 25.9652 61.7003 25.9459 61.7016 25.9218V11.808C61.7002 11.7844 61.6806 11.7659 61.6569 11.7659ZM72.2836 15.1583H67.9261C64.0184 15.1583 63.5187 18.0274 63.5187 20.5466V22.7267C63.5187 24.6043 64.6863 25.9665 66.2905 25.9665H68.6572C68.6809 25.9651 68.6993 25.9455 68.6993 25.9218V24.4597C68.6993 24.436 68.6809 24.4164 68.6572 24.415H66.9584C66.5666 24.415 66.0406 24.2414 66.0406 22.895V20.5282C66.0406 18.9635 66.1853 17.9642 66.5087 17.3962C66.8611 16.7677 67.416 16.6836 67.913 16.6836H69.7696C69.7696 16.6836 69.7854 16.6836 69.7854 16.7046V25.9087C69.7868 25.9338 69.8075 25.9534 69.8327 25.9534H72.2757C72.2998 25.9521 72.3191 25.9328 72.3204 25.9087V15.2004C72.3186 15.1798 72.3037 15.1628 72.2836 15.1583ZM89.9449 17.6829L88.7405 17.5908C87.8385 17.5119 87.1626 17.0123 87.1626 15.5317C87.1626 13.804 87.9384 13.3307 88.9719 13.3307H92.3116C92.3358 13.3293 92.355 13.3101 92.3563 13.2859V11.808C92.3549 11.7844 92.3353 11.766 92.3116 11.766H88.63C86.3553 11.766 84.7354 13.1045 84.7354 15.7684V15.8841C84.7354 17.9879 86.0292 19.5053 87.9568 19.6525L89.156 19.7419C90.0711 19.8103 90.6418 20.6282 90.6418 21.8694V22.2191C90.6418 23.0081 90.4472 24.4176 88.7825 24.4176H85.3034C85.2787 24.4176 85.2587 24.4376 85.2587 24.4623V25.9218C85.26 25.9459 85.2793 25.9652 85.3034 25.9665H89.6056C90.9205 25.9665 93.1531 25.4406 93.1531 21.8221C93.1531 20.5072 92.856 19.4842 92.2538 18.7374C91.741 18.0984 90.981 17.7539 89.9449 17.6829ZM109.931 15.1583H105.568C101.668 15.1583 101.163 18.0274 101.163 20.5466V22.7267C101.163 24.6043 102.328 25.9665 103.94 25.9665H106.307C106.331 25.9652 106.35 25.9459 106.352 25.9218V24.4597C106.35 24.4355 106.331 24.4163 106.307 24.415H104.608C104.219 24.415 103.696 24.2414 103.696 22.895V20.5282C103.696 18.9635 103.84 17.9642 104.159 17.3962C104.511 16.7677 105.068 16.6836 105.558 16.6836H107.425C107.425 16.6836 107.44 16.6836 107.443 16.7046V25.9087C107.444 25.9328 107.464 25.9521 107.488 25.9534H109.931C109.954 25.952 109.973 25.9324 109.973 25.9087V15.2004C109.973 15.1772 109.954 15.1583 109.931 15.1583ZM100.14 15.1583H97.4922C97.4835 15.1583 97.4764 15.1513 97.4764 15.1425V13.3622C97.4764 13.339 97.4576 13.3201 97.4343 13.3201H94.9887C94.965 13.3201 94.9454 13.3386 94.944 13.3622V22.7293C94.944 24.6043 96.1116 25.9665 97.7236 25.9665H99.475C99.4992 25.9652 99.5184 25.9459 99.5197 25.9218V24.4623C99.5198 24.4372 99.5001 24.4164 99.475 24.415H98.3995C98.1365 24.415 97.4764 24.3966 97.4738 23.0133V16.702C97.4738 16.6933 97.4809 16.6862 97.4896 16.6862C98.3022 16.6862 100.146 16.6862 100.146 16.6862C100.168 16.6863 100.188 16.6694 100.19 16.6467V15.2004C100.189 15.1767 100.169 15.1583 100.146 15.1583H100.14ZM117.215 15.1583H114.585C114.577 15.1583 114.57 15.1513 114.57 15.1425V13.3622C114.57 13.3511 114.565 13.3404 114.557 13.3325C114.549 13.3246 114.539 13.3201 114.528 13.3201H112.079C112.067 13.3194 112.056 13.3235 112.047 13.3313C112.038 13.3392 112.033 13.3503 112.032 13.3622V22.7293C112.032 24.6043 113.2 25.9665 114.809 25.9665H116.56C116.572 25.9665 116.583 25.9617 116.591 25.9533C116.599 25.9448 116.603 25.9334 116.602 25.9218V24.4623C116.603 24.4504 116.599 24.4388 116.591 24.4299C116.583 24.421 116.572 24.4156 116.56 24.415H115.48C115.203 24.415 114.564 24.3966 114.564 23.0133V16.702C114.564 16.6942 114.57 16.6875 114.578 16.6862C115.385 16.6862 117.22 16.6862 117.22 16.6862C117.243 16.6863 117.262 16.6694 117.265 16.6467V15.2004C117.264 15.1767 117.244 15.1583 117.22 15.1583H117.215ZM121.26 15.1583H118.814C118.79 15.1583 118.771 15.1767 118.769 15.2004V25.9218C118.771 25.9459 118.79 25.9652 118.814 25.9665H121.26C121.284 25.9665 121.304 25.9465 121.304 25.9218V15.2004C121.304 15.1781 121.287 15.1597 121.265 15.1583H121.26ZM121.26 11.766H118.814C118.79 11.7659 118.771 11.7844 118.769 11.808V13.8592C118.771 13.8829 118.79 13.9013 118.814 13.9013H121.26C121.271 13.902 121.283 13.8979 121.291 13.89C121.3 13.882 121.304 13.8709 121.304 13.8592V11.808C121.304 11.7858 121.287 11.7674 121.265 11.766H121.26ZM138.174 15.1583H133.817C133.793 15.1583 133.773 15.1767 133.772 15.2004V25.9218C133.772 25.9455 133.79 25.9651 133.814 25.9665H136.262C136.286 25.9651 136.304 25.9455 136.304 25.9218V16.7177C136.303 16.7126 136.305 16.7074 136.309 16.7037C136.312 16.7 136.318 16.6984 136.323 16.6993H138.182C138.687 16.6993 139.234 16.7809 139.592 17.362C139.915 17.888 140.06 18.811 140.06 20.2547C140.06 20.3178 140.06 25.9139 140.06 25.9139C140.06 25.9376 140.078 25.9572 140.102 25.9586H142.539C142.564 25.9586 142.584 25.9386 142.584 25.9139V20.5466C142.582 18.0274 142.079 15.1583 138.179 15.1583H138.174ZM132.144 20.5598C132.144 23.0817 131.618 25.9744 127.54 25.9744C123.461 25.9744 122.932 23.0817 122.932 20.5598C122.932 18.0379 123.458 15.1583 127.54 15.1583C131.621 15.1583 132.149 18.0405 132.149 20.5598H132.144ZM129.604 20.5598C129.604 18.6927 129.375 17.6329 128.868 17.1411C128.562 16.8361 128.168 16.7125 127.553 16.7125C126.937 16.7125 126.535 16.8361 126.238 17.1411C125.712 17.646 125.496 18.7006 125.496 20.5598C125.496 22.1376 125.659 23.1343 126.022 23.7155C126.411 24.3492 127.024 24.4334 127.574 24.4334C128.123 24.4334 128.739 24.3492 129.123 23.7155C129.446 23.1369 129.609 22.1376 129.609 20.5598H129.604ZM83.8229 15.1583H81.5008C81.4749 15.1597 81.4523 15.1762 81.443 15.2004L78.7475 22.1797C78.737 22.2042 78.7264 22.2042 78.7159 22.1797L76.336 15.2004C76.3288 15.1747 76.3048 15.1573 76.2782 15.1583H73.7115C73.7009 15.1571 73.6905 15.1619 73.6845 15.1707C73.6784 15.1795 73.6777 15.1909 73.6826 15.2004L77.3222 25.835C77.3301 25.8625 77.3301 25.8917 77.3222 25.9192L75.2789 31.1786C75.2789 31.2049 75.2789 31.2233 75.3052 31.2233H77.4326C77.4606 31.2222 77.4854 31.2047 77.4957 31.1786L83.8623 15.2135C83.8597 15.1741 83.8465 15.1583 83.8229 15.1583ZM144.159 24.7831C144.159 25.436 144.688 25.9655 145.341 25.9665C145.994 25.9675 146.524 25.4395 146.526 24.7866C146.528 24.1337 146.001 23.6027 145.348 23.5998C145.031 23.5895 144.723 23.7107 144.498 23.9347C144.273 24.1587 144.151 24.4657 144.159 24.7831ZM144.349 24.7831C144.356 24.2348 144.805 23.7953 145.353 23.7996C145.902 23.804 146.343 24.2505 146.342 24.7989C146.341 25.3472 145.896 25.7915 145.348 25.7929C145.079 25.8012 144.818 25.6971 144.629 25.5056C144.439 25.3141 144.338 25.0524 144.349 24.7831ZM144.875 25.4642H145.119V24.8857H145.282C145.487 24.8857 145.532 24.9357 145.572 25.0934C145.6 25.1881 145.645 25.3564 145.679 25.4642H145.929C145.89 25.3354 145.84 25.2013 145.795 25.0356C145.75 24.8699 145.69 24.8121 145.6 24.7884C145.76 24.7617 145.874 24.6186 145.863 24.457C145.863 24.173 145.679 24.102 145.43 24.102H144.88L144.875 25.4642ZM145.119 24.2703H145.353C145.487 24.2703 145.616 24.2993 145.616 24.4833C145.616 24.6674 145.511 24.7095 145.338 24.7095H145.119V24.2703ZM148.099 25.9665H149.84V19.9812H152.795C155.317 19.9812 157.5 18.861 157.5 15.7185C157.5 12.618 155.317 11.6766 152.767 11.6766H148.104L148.099 25.9665ZM149.84 13.1361H152.443C154.284 13.1361 155.743 13.5568 155.743 15.7789C155.743 18.0011 154.284 18.5217 152.622 18.5217H149.845L149.84 13.1361ZM158.844 11.2558V25.9665H160.545V11.2558H158.844ZM171.204 25.9665V15.3976H169.502V21.3829C169.502 23.8443 168.064 24.8647 166.623 24.8647C164.7 24.8647 164.14 23.6655 164.14 21.709V15.3976H162.439V22.3638C162.439 24.6858 163.84 26.2058 166.22 26.2058C167.682 26.2058 168.903 25.5273 169.544 24.4044H169.563V25.9665H171.204ZM179.492 15.7395C178.704 15.3398 177.591 15.1583 176.468 15.1583C174.709 15.1583 172.826 16.0787 172.826 18.1404C172.826 19.621 173.907 20.523 175.79 21.2041C177.449 21.8036 178.351 22.3427 178.351 23.3236C178.351 24.486 177.431 24.8647 176.19 24.8647C175.097 24.8254 174.024 24.567 173.034 24.1047L172.595 25.4458C173.707 25.9495 174.915 26.2087 176.137 26.2058C178.017 26.2058 180 25.4669 180 23.2237C180 21.4434 178.685 20.6834 176.697 19.9418C175.014 19.3212 174.454 18.861 174.454 17.9616C174.454 16.8203 175.506 16.4995 176.455 16.4995C177.36 16.4735 178.259 16.6534 179.085 17.0254L179.492 15.7395ZM30.2342 31.7835H29.7609V31.6204H30.8916V31.7835H30.4288V33.1983H30.2342V31.7835ZM31.8804 33.0247L32.3275 31.6204H32.6588V33.1983H32.4721V31.7677L31.9988 33.1983H31.7595L31.3019 31.7677V33.1983H31.1204V31.6204H31.4439L31.8804 33.0247Z" fill="black"/>
<path d="M37.2135 19.3396L36.0249 10.6615C35.9822 10.3376 35.8106 10.0446 35.5489 9.8489C35.2861 9.65209 34.9566 9.56618 34.6311 9.6096L24.6566 10.9771L23.2996 1.06297C23.2549 0.739112 23.0826 0.44656 22.821 0.250387C22.5593 0.0534764 22.2305 -0.0324893 21.9059 0.0110818L13.1567 1.21024C12.9926 1.23291 12.8345 1.2874 12.6913 1.37065C12.5545 1.45201 12.4348 1.55919 12.3389 1.68622C12.2411 1.8118 12.1695 1.95579 12.1285 2.10961C12.0849 2.26791 12.0741 2.43349 12.097 2.59611L13.4513 12.5023L3.47671 13.8671C3.31248 13.8893 3.15428 13.9439 3.01125 14.0275C2.87362 14.1088 2.75306 14.216 2.65624 14.3431C2.45711 14.6018 2.36997 14.9295 2.4143 15.253L3.60557 23.9311C3.64882 24.2548 3.82032 24.5476 4.08155 24.7437C4.34412 24.9409 4.67414 25.026 4.99933 24.9804L14.9739 23.6155L16.3308 33.5217C16.3752 33.8465 16.5472 34.1402 16.8089 34.3377C17.0705 34.5351 17.4001 34.6201 17.7246 34.5736L26.4737 33.3771C26.7987 33.3332 27.0929 33.162 27.2916 32.9011C27.4911 32.6416 27.5782 32.3129 27.5335 31.9886L26.1792 22.085L36.1537 20.7202C36.318 20.6967 36.4761 20.6413 36.6192 20.5572C36.7555 20.4752 36.8758 20.3692 36.9742 20.2442C37.0692 20.1173 37.1397 19.9737 37.182 19.8208C37.2244 19.6641 37.2352 19.5005 37.2135 19.3396Z" fill="url(#paint0_linear_700_5)"/>
<path d="M30.3263 11.9369C28.7684 12.1493 27.492 13.2793 27.0923 14.7999C26.6925 16.3204 27.2483 17.9321 28.5003 18.8831C29.7522 19.8341 31.4539 19.9372 32.8115 19.1443C34.1691 18.3514 34.9154 16.8186 34.7021 15.2609C34.563 14.2397 34.0237 13.3156 33.203 12.6921C32.3823 12.0687 31.3474 11.797 30.3263 11.9369ZM31.202 18.343C30.1667 18.4867 29.147 17.9923 28.6187 17.0905C28.0904 16.1887 28.1577 15.0574 28.7892 14.2247C29.4207 13.3919 30.492 13.0219 31.5028 13.2874C32.5137 13.5529 33.2648 14.4015 33.4057 15.4371C33.596 16.8471 32.611 18.1459 31.202 18.343ZM17.6562 2.25952L14.4716 10.2408L23.0498 9.06789L17.6562 2.25952ZM16.5175 8.64714L18.0349 4.83403L20.6147 8.08437L16.5175 8.64714ZM4.62064 15.8079L5.5805 22.8161L12.5861 21.8563L11.6289 14.848L4.62064 15.8079ZM6.6955 21.3461L6.08803 16.9229L10.527 16.3181L11.1319 20.7413L6.6955 21.3461ZM22.2504 28.2912L25.2903 30.6001L24.5014 31.6389L21.4614 29.33L19.1552 32.3699L18.1033 31.581L20.4095 28.5437L17.3722 26.2348L18.1611 25.1829L21.2011 27.4918L23.51 24.4518L24.5619 25.2407L22.2504 28.2912Z" fill="#C58821"/>
<path d="M36.9716 20.2521L34.5759 23.3894C34.3766 23.6496 34.0827 23.8206 33.7581 23.8654L26.5684 24.8515L26.1923 22.0929L36.1669 20.7281C36.3312 20.7045 36.4893 20.6492 36.6324 20.5651C36.7638 20.4826 36.8788 20.3765 36.9716 20.2521ZM26.9365 33.2246C26.7944 33.3083 26.6371 33.3628 26.4737 33.385L17.7246 34.5815C17.4001 34.6279 17.0705 34.543 16.8089 34.3456C16.5472 34.1481 16.3752 33.8544 16.3308 33.5296L14.9739 23.6234L5.00458 24.9909C4.6794 25.0365 4.34938 24.9514 4.08681 24.7542C3.82558 24.5582 3.65408 24.2654 3.61083 23.9416L2.41956 15.2635C2.37523 14.9401 2.46237 14.6123 2.6615 14.3536L0.27107 17.4804C0.0651288 17.7373 -0.029557 18.0658 0.00809683 18.3929L1.19674 27.071C1.24149 27.3949 1.4138 27.6874 1.67535 27.8836C1.93792 28.0808 2.26793 28.1659 2.59312 28.1203L12.5677 26.7554L13.9457 36.6695C13.9883 36.9935 14.16 37.2865 14.4216 37.4821C14.6845 37.6789 15.014 37.7648 15.3394 37.7214L24.0885 36.5223C24.414 36.4798 24.7087 36.3083 24.9064 36.0463L27.3021 32.909C27.2021 33.0371 27.0779 33.1443 26.9365 33.2246ZM12.1049 2.59611C12.082 2.43349 12.0928 2.26791 12.1364 2.10961C12.1774 1.95579 12.249 1.8118 12.3468 1.68622L9.94059 4.82349C9.74158 5.0822 9.65531 5.41023 9.70128 5.73337L10.6795 12.881L13.4513 12.5023L12.1049 2.59611Z" fill="url(#paint1_linear_700_5)"/>
<defs>
<linearGradient id="paint0_linear_700_5" x1="513.512" y1="808.483" x2="2962.42" y2="2667.99" gradientUnits="userSpaceOnUse">
<stop offset="0.03" stop-color="#FFE842"/>
<stop offset="1" stop-color="#FDC100"/>
</linearGradient>
<linearGradient id="paint1_linear_700_5" x1="463.661" y1="822.711" x2="2752.39" y2="3111.47" gradientUnits="userSpaceOnUse">
<stop stop-color="#C58821"/>
<stop offset="1" stop-color="#9B6C1B"/>
</linearGradient>
</defs>
</svg>
