<svg width="36" height="36" viewBox="0 0 36 36" fill="none" xmlns="http://www.w3.org/2000/svg">
<g clip-path="url(#clip0_414_450)">
<path d="M2.44156e-05 21.843H1.57502C1.58711 21.8385 1.59742 21.8302 1.60445 21.8194C1.61147 21.8086 1.61483 21.7958 1.61402 21.783V19.503C1.61402 18.771 2.02652 18.267 2.62652 18.267H9.11102C10.572 18.267 11.2815 17.3655 11.2815 16.1835C11.2815 15.126 10.701 14.298 9.51152 14.1465H-0.0284756C-0.0324756 14.1515 -0.0349756 14.1575 -0.0359756 14.1645V14.877C-0.0359756 14.913 -0.0179756 14.931 0.0180244 14.931H8.56352C9.28953 14.931 9.63002 15.4545 9.63002 16.1835C9.63002 16.914 9.28953 17.4375 8.56352 17.4375H1.80002C0.750024 17.4375 -0.0374756 18.33 -0.0374756 19.5015V21.7815C-0.0374756 21.8125 -0.0254756 21.8325 -0.00147559 21.8415M18.4185 19.761V16.185C18.4185 15.456 18.7575 14.9325 19.4835 14.9325H23.9685C23.9824 14.9312 23.9954 14.925 24.0052 14.9152C24.0151 14.9053 24.0212 14.8924 24.0225 14.8785V14.166L24.018 14.148H18.5355C17.3475 14.298 16.767 15.1275 16.767 16.185V19.764C16.767 20.4945 16.4175 21.018 15.7005 21.018H10.965C10.938 21.018 10.911 21.036 10.911 21.072V21.7845C10.911 21.8145 10.929 21.8355 10.9515 21.8445H16.326C17.727 21.807 18.417 20.913 18.417 19.764M23.994 21.018H32.604C32.6295 21.018 32.6475 21.036 32.6475 21.054V21.7845C32.6475 21.8205 32.6745 21.8385 32.7015 21.8385H34.2525C34.281 21.8385 34.3065 21.8205 34.3065 21.7845V21.072C34.3065 21.045 34.3335 21.018 34.3605 21.018H35.9025C35.9385 21.018 35.9565 20.991 35.9565 20.964V20.2425C35.9565 20.2155 35.9385 20.1885 35.9025 20.1885H34.365C34.3512 20.1872 34.3382 20.181 34.3283 20.1712C34.3185 20.1613 34.3124 20.1484 34.311 20.1345V14.931C34.311 14.5065 34.1535 14.2365 33.888 14.1465H33.438C33.2781 14.1912 33.1252 14.2578 32.9835 14.3445L23.712 20.07C23.352 20.295 23.2275 20.547 23.3175 20.736C23.388 20.8995 23.595 21.0165 23.9985 21.0165M25.344 20.061L32.526 15.6165C32.571 15.5805 32.661 15.5895 32.661 15.6885V20.133C32.6597 20.1469 32.6536 20.1598 32.6437 20.1697C32.6339 20.1795 32.6209 20.1857 32.607 20.187H25.3875C25.326 20.187 25.2975 20.169 25.29 20.151C25.28 20.117 25.298 20.087 25.344 20.061Z" fill="white"/>
</g>
<defs>
<clipPath id="clip0_414_450">
<rect width="36" height="36" fill="white"/>
</clipPath>
</defs>
</svg>
