<svg width="16" height="4" viewBox="0 0 16 4" fill="none" xmlns="http://www.w3.org/2000/svg">
<path d="M-5.69654e-05 3.70801H0.699943C0.705313 3.70601 0.709899 3.70234 0.71302 3.69754C0.716142 3.69274 0.717634 3.68706 0.717276 3.68134V2.66801C0.717276 2.34267 0.90061 2.11867 1.16728 2.11867H4.04928C4.69861 2.11867 5.01394 1.718 5.01394 1.19267C5.01394 0.722671 4.75594 0.354672 4.22728 0.287338H-0.0127236C-0.0145014 0.28956 -0.0156125 0.292227 -0.016057 0.295338V0.612005C-0.016057 0.628005 -0.00805697 0.636005 0.00794303 0.636005H3.80594C4.12861 0.636005 4.27994 0.868671 4.27994 1.19267C4.27994 1.51734 4.12861 1.75001 3.80594 1.75001H0.799943C0.333276 1.75001 -0.0167236 2.14667 -0.0167236 2.66734V3.68067C-0.0167236 3.69445 -0.0113903 3.70334 -0.000723632 3.70734M8.18594 2.78267V1.19334C8.18594 0.869338 8.33661 0.636672 8.65928 0.636672H10.6526C10.6588 0.636081 10.6645 0.633362 10.6689 0.628983C10.6733 0.624604 10.676 0.618837 10.6766 0.612672V0.296005L10.6746 0.288005H8.23794C7.70994 0.354672 7.45194 0.723338 7.45194 1.19334V2.784C7.45194 3.10867 7.29661 3.34134 6.97794 3.34134H4.87328C4.86128 3.34134 4.84928 3.34934 4.84928 3.36534V3.68201C4.84928 3.69534 4.85728 3.70467 4.86728 3.70867H7.25594C7.87861 3.69201 8.18528 3.29467 8.18528 2.784M10.6639 3.34134H14.4906C14.5019 3.34134 14.5099 3.34934 14.5099 3.35734V3.68201C14.5099 3.69801 14.5219 3.70601 14.5339 3.70601H15.2233C15.2359 3.70601 15.2473 3.69801 15.2473 3.68201V3.36534C15.2473 3.35334 15.2593 3.34134 15.2713 3.34134H15.9566C15.9726 3.34134 15.9806 3.32934 15.9806 3.31734V2.99667C15.9806 2.98467 15.9726 2.97267 15.9566 2.97267H15.2733C15.2671 2.97208 15.2613 2.96936 15.257 2.96498C15.2526 2.9606 15.2499 2.95484 15.2493 2.94867V0.636005C15.2493 0.447339 15.1793 0.327338 15.0613 0.287338H14.8613C14.7902 0.307214 14.7222 0.336828 14.6593 0.375338L10.5386 2.92001C10.3786 3.02001 10.3233 3.13201 10.3633 3.21601C10.3946 3.28867 10.4866 3.34067 10.6659 3.34067M11.2639 2.916L14.4559 0.940672C14.4759 0.924672 14.5159 0.928672 14.5159 0.972672V2.94801C14.5154 2.95417 14.5126 2.95994 14.5083 2.96432C14.5039 2.9687 14.4981 2.97141 14.4919 2.97201H11.2833C11.2559 2.97201 11.2433 2.96401 11.2399 2.95601C11.2355 2.94089 11.2435 2.92756 11.2639 2.916Z" fill="white"/>
</svg>
