<svg width="36" height="36" viewBox="0 0 36 36" fill="none" xmlns="http://www.w3.org/2000/svg">
<g clip-path="url(#clip0_838_15)">
<path d="M18 19.3C21.1947 19.3 24.1 20.2022 26.2373 21.4736C27.304 22.108 28.216 22.8568 28.8747 23.6706C29.5227 24.4701 30 25.4269 30 26.45C30 27.5485 29.452 28.4143 28.6627 29.0318C27.916 29.6168 26.9307 30.0042 25.884 30.2746C23.78 30.8167 20.972 31 18 31C15.028 31 12.22 30.818 10.116 30.2746C9.06933 30.0042 8.084 29.6168 7.33733 29.0318C6.54667 28.413 6 27.5485 6 26.45C6 25.4269 6.47733 24.4701 7.12533 23.6693C7.784 22.8568 8.69467 22.1093 9.76267 21.4723C11.9 20.2035 14.8067 19.3 18 19.3ZM18 5C19.7681 5 21.4638 5.68482 22.714 6.90381C23.9643 8.12279 24.6667 9.77609 24.6667 11.5C24.6667 13.2239 23.9643 14.8772 22.714 16.0962C21.4638 17.3152 19.7681 18 18 18C16.2319 18 14.5362 17.3152 13.286 16.0962C12.0357 14.8772 11.3333 13.2239 11.3333 11.5C11.3333 9.77609 12.0357 8.12279 13.286 6.90381C14.5362 5.68482 16.2319 5 18 5Z" fill="#7D7E84"/>
</g>
<defs>
<clipPath id="clip0_838_15">
<rect width="36" height="36" fill="white"/>
</clipPath>
</defs>
</svg>
