<svg width="36" height="36" viewBox="0 0 36 36" fill="none" xmlns="http://www.w3.org/2000/svg">
<path d="M35.6955 14.13H24.6735V17.118C24.6735 17.118 24.6405 18.2715 26.067 18.2715H32.8035C33.0674 18.271 33.3287 18.3241 33.5715 18.4275C33.948 18.5955 34.371 18.9375 34.371 19.626C34.371 20.244 34.071 20.595 33.7755 20.7915C33.5298 20.9502 33.243 21.0337 32.9505 21.0315H24.675V21.87H33.9045C33.9045 21.87 36 21.7845 36 19.6305C36 18.5355 35.3595 17.9925 34.785 17.7255C34.413 17.556 34.0088 17.4685 33.6 17.469H26.922C26.8104 17.4709 26.7002 17.4451 26.601 17.394C26.5054 17.3428 26.4263 17.2653 26.3732 17.1707C26.32 17.0761 26.295 16.9683 26.301 16.86V14.958H35.6955V14.13ZM10.8 21.0285V21.867H15.4785C16.0375 21.8721 16.5796 21.6756 17.0055 21.3135C17.2248 21.1271 17.3997 20.894 17.5175 20.6314C17.6353 20.3688 17.693 20.0832 17.6865 19.7955V16.23C17.6843 16.035 17.7264 15.842 17.8095 15.6656C17.8927 15.4892 18.0147 15.3339 18.1665 15.2115C18.3816 15.0431 18.6478 14.9531 18.921 14.9565H23.001V14.13H18.1425C18.1425 14.13 16.047 14.163 16.047 16.38V19.71C16.0505 19.9825 15.9767 20.2503 15.834 20.4825C15.7312 20.6546 15.5842 20.7962 15.4083 20.8924C15.2324 20.9887 15.0339 21.0362 14.8335 21.03L10.8 21.0285ZM0 14.13V14.958H8.3385C8.57037 14.956 8.79983 15.0051 9.0105 15.102C9.3405 15.2565 9.7125 15.576 9.7125 16.224C9.72066 16.4566 9.65788 16.6862 9.5325 16.8823C9.40712 17.0784 9.22507 17.2318 9.0105 17.322C8.79609 17.4191 8.56338 17.4692 8.328 17.469H2.1435C1.77731 17.4673 1.41557 17.5494 1.086 17.709C0.5715 17.967 0 18.5745 0 19.578V21.861H1.605V19.587C1.6044 19.4399 1.63084 19.294 1.683 19.1565C1.815 18.816 2.151 18.2715 2.934 18.2715H9.1695C9.37883 18.273 9.58734 18.2452 9.789 18.189C10.362 18.024 11.3175 17.5545 11.3175 16.224C11.3175 14.154 9.258 14.13 9.258 14.13H0Z" fill="white"/>
</svg>
