<svg width="16" height="4" viewBox="0 0 16 4" fill="none" xmlns="http://www.w3.org/2000/svg">
<path d="M15.8647 0.279999H10.966V1.608C10.966 1.608 10.9513 2.12067 11.5853 2.12067H14.5793C14.6966 2.12044 14.8128 2.14403 14.9207 2.19C15.088 2.26467 15.276 2.41667 15.276 2.72267C15.276 2.99733 15.1427 3.15333 15.0113 3.24067C14.9021 3.31121 14.7747 3.34829 14.6447 3.34733H10.9667V3.72H15.0687C15.0687 3.72 16 3.682 16 2.72467C16 2.238 15.7153 1.99667 15.46 1.878C15.2947 1.80266 15.115 1.76378 14.9333 1.764H11.9653C11.9158 1.76485 11.8667 1.7534 11.8227 1.73067C11.7802 1.7079 11.745 1.67347 11.7214 1.63143C11.6978 1.58939 11.6867 1.54148 11.6893 1.49333V0.647999H15.8647V0.279999ZM4.8 3.346V3.71867H6.87933C7.12777 3.72092 7.36871 3.63359 7.558 3.47266C7.65545 3.3898 7.73319 3.28624 7.78555 3.16952C7.83791 3.05281 7.86357 2.92589 7.86067 2.798V1.21333C7.8597 1.12666 7.87839 1.0409 7.91534 0.962495C7.95229 0.88409 8.00654 0.815084 8.074 0.760665C8.16962 0.685815 8.28791 0.645834 8.40933 0.647332H10.2227V0.279999H8.06333C8.06333 0.279999 7.132 0.294665 7.132 1.28V2.76C7.13356 2.88109 7.10074 3.00015 7.03733 3.10333C6.99163 3.17984 6.9263 3.24274 6.84812 3.28552C6.76994 3.32831 6.68175 3.34942 6.59267 3.34667L4.8 3.346ZM0 0.279999V0.647999H3.706C3.80905 0.647087 3.91104 0.66894 4.00467 0.711999C4.15133 0.780665 4.31667 0.922665 4.31667 1.21067C4.32029 1.31405 4.29239 1.4161 4.23667 1.50326C4.18094 1.59041 4.10003 1.65857 4.00467 1.69867C3.90937 1.74183 3.80595 1.76411 3.70133 1.764H0.952667C0.789914 1.76323 0.629144 1.79972 0.482667 1.87067C0.254 1.98533 0 2.25533 0 2.70133V3.716H0.713333V2.70533C0.713067 2.63997 0.724817 2.57511 0.748 2.514C0.806667 2.36267 0.956 2.12067 1.304 2.12067H4.07533C4.16837 2.12131 4.26104 2.10897 4.35067 2.084C4.60533 2.01067 5.03 1.802 5.03 1.21067C5.03 0.290665 4.11467 0.279999 4.11467 0.279999H0Z" fill="white"/>
</svg>
