<svg width="24" height="24" viewBox="0 0 24 24" fill="none" xmlns="http://www.w3.org/2000/svg">
<path fill-rule="evenodd" clip-rule="evenodd" d="M21 6H3V9C3.53043 9 4.03914 9.21071 4.41421 9.58579C4.78929 9.96086 5 10.4696 5 11V15C5 17.828 5 19.243 5.879 20.121C6.757 21 8.172 21 11 21H13C15.829 21 17.243 21 18.121 20.121C19.001 19.243 19.001 17.828 19.001 15V11C19.001 10.4696 19.2117 9.96086 19.5868 9.58579C19.9619 9.21071 20.4706 9 21.001 9L21 6ZM10.5 11C10.5 10.7348 10.3946 10.4804 10.2071 10.2929C10.0196 10.1054 9.76522 10 9.5 10C9.23478 10 8.98043 10.1054 8.79289 10.2929C8.60536 10.4804 8.5 10.7348 8.5 11V16C8.5 16.2652 8.60536 16.5196 8.79289 16.7071C8.98043 16.8946 9.23478 17 9.5 17C9.76522 17 10.0196 16.8946 10.2071 16.7071C10.3946 16.5196 10.5 16.2652 10.5 16V11ZM15.5 11C15.5 10.7348 15.3946 10.4804 15.2071 10.2929C15.0196 10.1054 14.7652 10 14.5 10C14.2348 10 13.9804 10.1054 13.7929 10.2929C13.6054 10.4804 13.5 10.7348 13.5 11V16C13.5 16.2652 13.6054 16.5196 13.7929 16.7071C13.9804 16.8946 14.2348 17 14.5 17C14.7652 17 15.0196 16.8946 15.2071 16.7071C15.3946 16.5196 15.5 16.2652 15.5 16V11Z" fill="#9F5252"/>
<path d="M10.068 3.37C10.182 3.264 10.433 3.17 10.783 3.103C11.1847 3.03158 11.592 2.9971 12 3C12.44 3 12.868 3.036 13.217 3.103C13.567 3.17 13.817 3.264 13.932 3.371" stroke="#9F5252" stroke-width="2" stroke-linecap="round"/>
</svg>
