<svg width="36" height="36" viewBox="0 0 36 36" fill="none" xmlns="http://www.w3.org/2000/svg">
<path fill-rule="evenodd" clip-rule="evenodd" d="M14.25 29.25C14.6478 29.25 15.0294 29.092 15.3107 28.8107C15.592 28.5294 15.75 28.1478 15.75 27.75C15.75 27.3522 15.592 26.9706 15.3107 26.6893C15.0294 26.408 14.6478 26.25 14.25 26.25C13.8522 26.25 13.4706 26.408 13.1893 26.6893C12.908 26.9706 12.75 27.3522 12.75 27.75C12.75 28.1478 12.908 28.5294 13.1893 28.8107C13.4706 29.092 13.8522 29.25 14.25 29.25ZM14.25 30.75C15.0456 30.75 15.8087 30.4339 16.3713 29.8713C16.9339 29.3087 17.25 28.5456 17.25 27.75C17.25 26.9544 16.9339 26.1913 16.3713 25.6287C15.8087 25.0661 15.0456 24.75 14.25 24.75C13.4544 24.75 12.6913 25.0661 12.1287 25.6287C11.5661 26.1913 11.25 26.9544 11.25 27.75C11.25 28.5456 11.5661 29.3087 12.1287 29.8713C12.6913 30.4339 13.4544 30.75 14.25 30.75ZM24.75 29.25C25.1478 29.25 25.5294 29.092 25.8107 28.8107C26.092 28.5294 26.25 28.1478 26.25 27.75C26.25 27.3522 26.092 26.9706 25.8107 26.6893C25.5294 26.408 25.1478 26.25 24.75 26.25C24.3522 26.25 23.9706 26.408 23.6893 26.6893C23.408 26.9706 23.25 27.3522 23.25 27.75C23.25 28.1478 23.408 28.5294 23.6893 28.8107C23.9706 29.092 24.3522 29.25 24.75 29.25ZM24.75 30.75C25.5456 30.75 26.3087 30.4339 26.8713 29.8713C27.4339 29.3087 27.75 28.5456 27.75 27.75C27.75 26.9544 27.4339 26.1913 26.8713 25.6287C26.3087 25.0661 25.5456 24.75 24.75 24.75C23.9544 24.75 23.1913 25.0661 22.6287 25.6287C22.0661 26.1913 21.75 26.9544 21.75 27.75C21.75 28.5456 22.0661 29.3087 22.6287 29.8713C23.1913 30.4339 23.9544 30.75 24.75 30.75ZM4.5 6C4.5 5.80109 4.57902 5.61032 4.71967 5.46967C4.86032 5.32902 5.05109 5.25 5.25 5.25H8.25C8.40897 5.25011 8.5638 5.30073 8.69214 5.39455C8.82047 5.48837 8.91567 5.62055 8.964 5.772L14.055 21.75H25.5C25.6989 21.75 25.8897 21.829 26.0303 21.9697C26.171 22.1103 26.25 22.3011 26.25 22.5C26.25 22.6989 26.171 22.8897 26.0303 23.0303C25.8897 23.171 25.6989 23.25 25.5 23.25H13.506C13.347 23.2499 13.1922 23.1993 13.0639 23.1054C12.9355 23.0116 12.8403 22.8794 12.792 22.728L7.7025 6.75H5.25C5.05109 6.75 4.86032 6.67098 4.71967 6.53033C4.57902 6.38968 4.5 6.19891 4.5 6Z" fill="white"/>
<path d="M12.75 19.5L9 9H29.0055C29.1214 9.0002 29.2357 9.02727 29.3394 9.07909C29.4431 9.13091 29.5334 9.20606 29.6032 9.29865C29.673 9.39123 29.7203 9.49873 29.7415 9.6127C29.7628 9.72667 29.7573 9.84401 29.7255 9.9555L27.156 18.9555C27.1113 19.1124 27.0167 19.2504 26.8865 19.3487C26.7563 19.4469 26.5976 19.5 26.4345 19.5H12.75Z" fill="white"/>
</svg>
