<svg width="117" height="40" viewBox="0 0 117 40" fill="none" xmlns="http://www.w3.org/2000/svg">
<path fill-rule="evenodd" clip-rule="evenodd" d="M46.2386 5.32711V31.3442H51.3063V21.8664H57.5489C62.5794 21.8664 66.325 18.3361 66.325 13.5414C66.325 8.78363 62.7266 5.32711 57.7325 5.32711H46.2386ZM57.1823 17.4813H51.3063V9.89895H57.1823C59.6055 9.89895 61.295 11.4599 61.295 13.6902C61.295 15.9201 59.6055 17.4813 57.1823 17.4813ZM73.3751 3.84092L68.7123 5.32711V31.3442H73.3751V3.84092ZM84.7215 31.6047C86.9991 31.6047 89.0552 30.7499 90.5975 29.2998V31.3442H95.2609V12.7983H90.5975V14.8418C89.1285 13.3555 87.1083 12.5006 84.9061 12.5006C80.1325 12.5006 75.7988 16.5145 75.7988 22.0523C75.7988 27.5901 80.0587 31.6047 84.7215 31.6047ZM85.5301 27.3672C82.7029 27.3672 80.4253 25.1743 80.4253 22.0523C80.4253 18.9303 82.7029 16.7374 85.5301 16.7374C88.3943 16.7374 90.6339 18.9303 90.6339 22.0523C90.6339 25.1743 88.3943 27.3672 85.5301 27.3672ZM117 12.7983H112.116L106.901 23.725L101.577 12.7983H96.3628L104.221 29.0024L98.97 39.5585H104.037L117 12.7983ZM26.7645 23.6326L25.2673 21.2135H20.896L22.3956 18.79H23.7765L22.1073 16.0924L17.4507 23.6326H5.02749L8.01861 18.79H5.82228L7.31541 16.3667H16.9184L15.4245 18.79H10.8443L9.34716 21.2135H16.1224L22.1073 11.5187L29.587 23.6326H26.7645ZM10.3077 11.5187H20.1581L18.6609 13.9432H8.81145L10.3077 11.5187ZM17.1346 1C7.67187 1 0 8.76547 0 18.3437C0 27.9242 7.67187 35.6863 17.1346 35.6863C26.5972 35.6863 34.2703 27.9242 34.2703 18.3437C34.2703 8.76547 26.5972 1 17.1346 1Z" fill="#FF4747"/>
</svg>
