<svg width="36" height="36" viewBox="0 0 36 36" fill="none" xmlns="http://www.w3.org/2000/svg">
<path fill-rule="evenodd" clip-rule="evenodd" d="M8.25 27C8.25 26.8011 8.32902 26.6103 8.46967 26.4697C8.61032 26.329 8.80109 26.25 9 26.25H27C27.1989 26.25 27.3897 26.329 27.5303 26.4697C27.671 26.6103 27.75 26.8011 27.75 27C27.75 27.1989 27.671 27.3897 27.5303 27.5303C27.3897 27.671 27.1989 27.75 27 27.75H9C8.80109 27.75 8.61032 27.671 8.46967 27.5303C8.32902 27.3897 8.25 27.1989 8.25 27Z" fill="white"/>
<path d="M13.5 17.25H10.5C10.0858 17.25 9.75 17.5858 9.75 18V27C9.75 27.4142 10.0858 27.75 10.5 27.75H13.5C13.9142 27.75 14.25 27.4142 14.25 27V18C14.25 17.5858 13.9142 17.25 13.5 17.25Z" fill="white"/>
<path d="M19.5 8.25H16.5C16.0858 8.25 15.75 8.58579 15.75 9V27C15.75 27.4142 16.0858 27.75 16.5 27.75H19.5C19.9142 27.75 20.25 27.4142 20.25 27V9C20.25 8.58579 19.9142 8.25 19.5 8.25Z" fill="white"/>
<path d="M25.5 12.75H22.5C22.0858 12.75 21.75 13.0858 21.75 13.5V27C21.75 27.4142 22.0858 27.75 22.5 27.75H25.5C25.9142 27.75 26.25 27.4142 26.25 27V13.5C26.25 13.0858 25.9142 12.75 25.5 12.75Z" fill="white"/>
</svg>
